PathFileType	4	(X/Y/Z)	C:/Users/opensim2020/Desktop/walking_exp_matlab/subject03_walking05_straight_04.trc	
DataRate	CameraRate	NumFrames	NumMarkers	Units	OrigDataRate	OrigDataStartFrame	OrigNumFrames	
100.00	100.00	4	45	mm	100.00	3075	294	
Frame#	Time	LFHD			RFHD			LBHD			RBHD			C7			T10			CLAV			STRN			RBAK			LSHO			LUPA			LELB			LFRM			LWRA			LWRB			LFIN			RSHO			RUPA			RELB			RFRM			RWRA			RWRB			RFIN			LASI			RASI			LPSI			RPSI			LTHI			LKNE			LTIB			LANK			LHEE			LTOE			RTHI			RKNE			RTIB			RANK			RHEE			RTOE			*39			*40			*41			*42			*43			*44			
		X1	Y1	Z1	X2	Y2	Z2	X3	Y3	Z3	X4	Y4	Z4	X5	Y5	Z5	X6	Y6	Z6	X7	Y7	Z7	X8	Y8	Z8	X9	Y9	Z9	X10	Y10	Z10	X11	Y11	Z11	X12	Y12	Z12	X13	Y13	Z13	X14	Y14	Z14	X15	Y15	Z15	X16	Y16	Z16	X17	Y17	Z17	X18	Y18	Z18	X19	Y19	Z19	X20	Y20	Z20	X21	Y21	Z21	X22	Y22	Z22	X23	Y23	Z23	X24	Y24	Z24	X25	Y25	Z25	X26	Y26	Z26	X27	Y27	Z27	X28	Y28	Z28	X29	Y29	Z29	X30	Y30	Z30	X31	Y31	Z31	X32	Y32	Z32	X33	Y33	Z33	X34	Y34	Z34	X35	Y35	Z35	X36	Y36	Z36	X37	Y37	Z37	X38	Y38	Z38	X39	Y39	Z39	X40	Y40	Z40	X41	Y41	Z41	X42	Y42	Z42	X43	Y43	Z43	X44	Y44	Z44	X45	Y45	Z45	

221	2.200	1506.96716	-517.23254	1603.64417	1374.72205	-510.16492	1618.41956	1505.60547	-386.76974	1567.59473	1375.36035	-384.76099	1581.82361	1434.66101	-350.25998	1412.18469	1432.25171	-310.83792	1098.05359	1433.23853	-469.64258	1332.63574	1435.11731	-509.30719	1167.12903	1330.58948	-295.98386	1239.92993	1590.37463	-423.85150	1367.62622	1658.61145	-387.46579	1170.21497	1669.87891	-376.19290	1047.26123	1669.53894	-385.50012	917.29614	1638.65759	-388.74377	798.09253	1689.22058	-365.59991	805.90155	1679.50696	-370.27380	721.71893	1274.60352	-430.40976	1361.37708	1193.58069	-473.55457	1147.59741	1180.54004	-520.04645	1045.50464	1184.08630	-581.28680	923.51587	1226.72656	-637.09973	845.05530	1179.73584	-615.40582	829.28949	1193.09631	-661.95514	773.09308	1543.56311	-486.46664	933.82098	1305.29468	-472.30865	934.03180	1503.37732	-320.83530	950.28845	1353.97864	-315.04446	964.81915	1599.66870	-497.65146	635.82068	1559.29797	-570.30725	474.38242	1562.62097	-576.65369	282.53824	1532.24866	-630.91876	77.35421	1489.66101	-605.19281	33.67878	1519.49561	-784.29865	74.25172	1273.87512	-378.20331	643.93170	1312.77490	-357.19684	465.78214	1314.92004	-272.74387	291.74149	1368.84631	-200.84332	87.77097	1420.17847	-153.41675	62.98864	1381.05774	-337.17154	36.08557																		 
222	2.210	1507.66553	-527.41718	1602.72974	1375.43738	-520.27838	1617.47937	1506.35474	-397.00699	1566.47083	1376.09253	-394.91434	1580.70703	1435.62036	-360.74158	1411.21692	1433.38635	-321.07040	1097.03857	1433.93262	-480.15509	1331.66736	1435.68018	-519.67786	1166.04492	1331.61816	-305.98325	1239.14087	1591.22034	-434.71375	1366.64185	1659.28796	-396.75900	1169.38855	1670.57275	-384.21841	1046.54639	1670.34338	-392.24622	916.48297	1639.82690	-394.51849	797.32428	1689.91565	-371.11282	805.26434	1680.48889	-374.75589	721.05548	1275.34363	-440.59036	1360.24646	1194.19312	-483.96133	1146.67957	1181.06665	-530.64093	1044.80359	1185.13647	-593.15430	923.47906	1228.00220	-649.93323	845.89404	1181.27637	-628.14532	829.53699	1194.74390	-675.44720	774.24316	1544.09546	-497.04120	932.57672	1305.81885	-481.69116	932.91650	1504.81555	-331.34317	949.25677	1355.45300	-324.28253	963.98895	1600.81543	-505.78680	633.74573	1557.97559	-577.97424	472.30753	1562.47559	-590.11365	281.89914	1534.17993	-651.55139	78.62309	1491.42102	-627.27087	33.61425	1521.17493	-805.30548	79.85114	1274.43933	-385.90765	643.48615	1312.85266	-363.47464	465.41867	1315.14417	-276.69141	292.42993	1368.73987	-201.80486	89.35627	1420.06299	-154.19710	65.08028	1380.97314	-337.32437	36.03865																		 
223	2.220	1508.38892	-537.65906	1601.86646	1376.13721	-530.43268	1616.57495	1507.14526	-407.30777	1565.39661	1376.87012	-405.19199	1579.58545	1436.35181	-371.44656	1410.14832	1434.87292	-331.00342	1096.43823	1434.68140	-490.75314	1330.63306	1436.20667	-530.04297	1164.95508	1332.56836	-316.26468	1238.16516	1592.06799	-445.45319	1365.60522	1660.00562	-406.33157	1168.57166	1671.23621	-392.62204	1045.80444	1671.15503	-399.27710	915.65271	1640.73950	-400.35260	796.35760	1690.70630	-376.87421	804.65875	1681.40271	-379.61600	720.43494	1276.17993	-450.81989	1359.26245	1194.94275	-494.30942	1145.82813	1181.69690	-541.12292	1044.06482	1186.17322	-604.58350	923.26776	1229.41833	-662.26678	846.63214	1182.87659	-640.55627	829.70831	1196.44788	-688.62390	775.13922	1544.62732	-507.92273	931.41388	1306.37915	-491.11237	931.85925	1506.67480	-341.55249	948.68591	1357.14709	-333.88507	963.09058	1601.43860	-514.65485	631.85156	1556.89636	-585.90265	470.21527	1562.62280	-602.96576	281.43561	1535.67322	-669.68976	79.38390	1493.27966	-646.72919	33.51498	1522.67126	-823.68542	84.43873	1274.36255	-393.41913	643.08752	1312.93237	-370.06812	465.01749	1315.07800	-280.80234	293.03949	1368.54016	-202.87740	91.12442	1419.86597	-154.60495	67.70438	1380.85327	-337.54578	35.98531																		 
224	2.230	1509.09839	-547.98889	1601.04333	1376.87183	-540.63617	1615.73193	1507.94373	-417.67856	1564.40906	1377.72668	-415.40869	1578.61255	1437.55981	-381.68542	1409.32483	1435.97375	-341.70706	1095.24854	1435.43384	-501.33475	1329.72607	1436.78711	-540.70160	1164.09119	1333.58765	-326.45776	1237.38342	1592.99890	-456.37997	1364.66602	1660.71399	-416.06656	1167.74438	1671.87427	-401.40417	1045.06812	1671.88220	-406.71381	914.79535	1641.61951	-406.76538	795.50079	1691.44128	-383.05142	804.06812	1682.21753	-384.88809	719.79492	1277.05029	-461.17804	1358.33801	1195.79370	-504.56885	1144.92529	1182.43408	-551.42847	1043.26880	1187.32397	-615.87537	922.99695	1230.87793	-674.29059	847.08972	1184.56958	-652.54584	829.74609	1198.31177	-701.51605	775.86310	1545.11768	-518.89081	930.23358	1306.89758	-500.68039	930.87567	1508.23132	-352.53625	947.63281	1358.92334	-343.68741	962.19623	1601.47339	-524.16071	630.11578	1555.82080	-594.29541	468.15775	1562.85181	-615.05817	281.09070	1536.77661	-685.33435	79.78912	1494.96484	-663.13672	33.30825	1523.95081	-839.39813	87.63071	1274.79700	-401.46930	642.70270	1313.00562	-377.16284	464.61621	1314.99561	-285.31451	293.76663	1368.32922	-203.95291	93.22228	1419.61694	-155.37151	70.50798	1380.64734	-337.78888	35.94728																		 
